# MagicaVoxel @ Ephtracy

# group
o 

# material
mtllib card.mtl
usemtl palette

# normals
vn -1 0 0
vn 1 0 0
vn 0 0 1
vn 0 0 -1
vn 0 -1 0
vn 0 1 0

# texcoords
vt 0.0996094 0.5
vt 0.916016 0.5
vt 0.958984 0.5

# verts
v -1 0.1 0.1
v -1 0.1 0
v -1 0.1 -0.1
v -1 2.7 0.1
v -1 2.7 0
v -1 2.7 -0.1
v -0.9 0 0.1
v -0.9 0 0
v -0.9 0 -0.1
v -0.9 0.1 0.1
v -0.9 0.1 0
v -0.9 0.1 -0.1
v -0.9 2.7 0.1
v -0.9 2.7 0
v -0.9 2.7 -0.1
v -0.9 2.8 0.1
v -0.9 2.8 0
v -0.9 2.8 -0.1
v 0.9 0 0.1
v 0.9 0 0
v 0.9 0 -0.1
v 0.9 0.1 0.1
v 0.9 0.1 0
v 0.9 0.1 -0.1
v 0.9 2.7 0.1
v 0.9 2.7 0
v 0.9 2.7 -0.1
v 0.9 2.8 0.1
v 0.9 2.8 0
v 0.9 2.8 -0.1
v 1 0.1 0.1
v 1 0.1 0
v 1 0.1 -0.1
v 1 2.7 0.1
v 1 2.7 0
v 1 2.7 -0.1
v -1 0.1 0.1
v -1 2.7 0.1
v -0.9 0 0.1
v -0.9 0.1 0.1
v -0.9 0.2 0.1
v -0.9 2.6 0.1
v -0.9 2.7 0.1
v -0.9 2.8 0.1
v -0.8 0.1 0.1
v -0.8 0.2 0.1
v -0.8 0.3 0.1
v -0.8 2.5 0.1
v -0.8 2.6 0.1
v -0.8 2.7 0.1
v -0.7 0.2 0.1
v -0.7 0.3 0.1
v -0.7 1.9 0.1
v -0.7 2.4 0.1
v -0.7 2.5 0.1
v -0.7 2.6 0.1
v -0.6 1 0.1
v -0.6 1.1 0.1
v -0.6 1.7 0.1
v -0.6 1.8 0.1
v -0.6 1.9 0.1
v -0.6 2.1 0.1
v -0.6 2.2 0.1
v -0.6 2.4 0.1
v -0.5 2 0.1
v -0.5 2.1 0.1
v -0.5 2.2 0.1
v -0.5 2.3 0.1
v -0.4 1 0.1
v -0.4 1.1 0.1
v -0.4 1.7 0.1
v -0.4 1.8 0.1
v -0.4 1.9 0.1
v -0.4 2 0.1
v -0.4 2.1 0.1
v -0.4 2.2 0.1
v -0.4 2.3 0.1
v -0.4 2.4 0.1
v -0.3 1.2 0.1
v -0.3 1.6 0.1
v -0.3 1.9 0.1
v -0.3 2 0.1
v -0.3 2.3 0.1
v -0.3 2.4 0.1
v -0.2 1 0.1
v -0.2 1.1 0.1
v -0.2 1.2 0.1
v -0.2 1.3 0.1
v -0.2 1.5 0.1
v -0.2 1.6 0.1
v -0.2 1.7 0.1
v -0.2 1.8 0.1
v -0.1 0.9 0.1
v -0.1 1 0.1
v -0.1 1.1 0.1
v -0.1 1.2 0.1
v -0.1 1.3 0.1
v -0.1 1.5 0.1
v -0.1 1.6 0.1
v -0.1 1.7 0.1
v -0.1 1.8 0.1
v -0.1 1.9 0.1
v 0.1 0.9 0.1
v 0.1 1 0.1
v 0.1 1.1 0.1
v 0.1 1.2 0.1
v 0.1 1.3 0.1
v 0.1 1.5 0.1
v 0.1 1.6 0.1
v 0.1 1.7 0.1
v 0.1 1.8 0.1
v 0.1 1.9 0.1
v 0.2 1 0.1
v 0.2 1.1 0.1
v 0.2 1.2 0.1
v 0.2 1.3 0.1
v 0.2 1.5 0.1
v 0.2 1.6 0.1
v 0.2 1.7 0.1
v 0.2 1.8 0.1
v 0.3 0.4 0.1
v 0.3 0.5 0.1
v 0.3 0.8 0.1
v 0.3 0.9 0.1
v 0.3 1.2 0.1
v 0.3 1.6 0.1
v 0.4 0.4 0.1
v 0.4 0.5 0.1
v 0.4 0.6 0.1
v 0.4 0.7 0.1
v 0.4 0.8 0.1
v 0.4 0.9 0.1
v 0.4 1 0.1
v 0.4 1.1 0.1
v 0.4 1.7 0.1
v 0.4 1.8 0.1
v 0.5 0.5 0.1
v 0.5 0.6 0.1
v 0.5 0.7 0.1
v 0.5 0.8 0.1
v 0.6 0.4 0.1
v 0.6 0.6 0.1
v 0.6 0.7 0.1
v 0.6 0.9 0.1
v 0.6 1 0.1
v 0.6 1.1 0.1
v 0.6 1.7 0.1
v 0.6 1.8 0.1
v 0.7 0.2 0.1
v 0.7 0.3 0.1
v 0.7 0.4 0.1
v 0.7 0.9 0.1
v 0.7 2.5 0.1
v 0.7 2.6 0.1
v 0.8 0.1 0.1
v 0.8 0.2 0.1
v 0.8 0.3 0.1
v 0.8 2.5 0.1
v 0.8 2.6 0.1
v 0.8 2.7 0.1
v 0.9 0 0.1
v 0.9 0.1 0.1
v 0.9 0.2 0.1
v 0.9 2.6 0.1
v 0.9 2.7 0.1
v 0.9 2.8 0.1
v 1 0.1 0.1
v 1 2.7 0.1
v -1 0.1 -0.1
v -1 2.7 -0.1
v -0.9 0 -0.1
v -0.9 0.1 -0.1
v -0.9 0.2 -0.1
v -0.9 0.3 -0.1
v -0.9 1.2 -0.1
v -0.9 1.3 -0.1
v -0.9 1.5 -0.1
v -0.9 1.6 -0.1
v -0.9 2.5 -0.1
v -0.9 2.6 -0.1
v -0.9 2.7 -0.1
v -0.9 2.8 -0.1
v -0.8 0.1 -0.1
v -0.8 0.2 -0.1
v -0.8 0.7 -0.1
v -0.8 0.8 -0.1
v -0.8 0.9 -0.1
v -0.8 1.2 -0.1
v -0.8 1.3 -0.1
v -0.8 1.5 -0.1
v -0.8 1.6 -0.1
v -0.8 1.9 -0.1
v -0.8 2 -0.1
v -0.8 2.1 -0.1
v -0.8 2.6 -0.1
v -0.8 2.7 -0.1
v -0.7 0.1 -0.1
v -0.7 0.3 -0.1
v -0.7 0.5 -0.1
v -0.7 0.7 -0.1
v -0.7 0.8 -0.1
v -0.7 0.9 -0.1
v -0.7 1.2 -0.1
v -0.7 1.6 -0.1
v -0.7 1.9 -0.1
v -0.7 2 -0.1
v -0.7 2.1 -0.1
v -0.7 2.3 -0.1
v -0.7 2.5 -0.1
v -0.7 2.7 -0.1
v -0.5 0.3 -0.1
v -0.5 0.5 -0.1
v -0.5 0.6 -0.1
v -0.5 0.7 -0.1
v -0.5 1.2 -0.1
v -0.5 1.6 -0.1
v -0.5 2.1 -0.1
v -0.5 2.2 -0.1
v -0.5 2.3 -0.1
v -0.5 2.5 -0.1
v -0.4 0.1 -0.1
v -0.4 0.2 -0.1
v -0.4 0.5 -0.1
v -0.4 0.6 -0.1
v -0.4 0.7 -0.1
v -0.4 1.2 -0.1
v -0.4 1.6 -0.1
v -0.4 2.1 -0.1
v -0.4 2.2 -0.1
v -0.4 2.3 -0.1
v -0.4 2.6 -0.1
v -0.4 2.7 -0.1
v -0.3 0.3 -0.1
v -0.3 0.4 -0.1
v -0.3 0.5 -0.1
v -0.3 0.9 -0.1
v -0.3 1 -0.1
v -0.3 1.1 -0.1
v -0.3 1.7 -0.1
v -0.3 1.8 -0.1
v -0.3 1.9 -0.1
v -0.3 2.3 -0.1
v -0.3 2.4 -0.1
v -0.3 2.5 -0.1
v -0.2 0.3 -0.1
v -0.2 0.4 -0.1
v -0.2 0.5 -0.1
v -0.2 0.9 -0.1
v -0.2 1 -0.1
v -0.2 1.1 -0.1
v -0.2 1.2 -0.1
v -0.2 1.6 -0.1
v -0.2 1.7 -0.1
v -0.2 1.8 -0.1
v -0.2 1.9 -0.1
v -0.2 2.3 -0.1
v -0.2 2.4 -0.1
v -0.2 2.5 -0.1
v -0.1 0.3 -0.1
v -0.1 0.4 -0.1
v -0.1 0.5 -0.1
v -0.1 0.6 -0.1
v -0.1 0.8 -0.1
v -0.1 0.9 -0.1
v -0.1 1.2 -0.1
v -0.1 1.3 -0.1
v -0.1 1.5 -0.1
v -0.1 1.6 -0.1
v -0.1 1.9 -0.1
v -0.1 2 -0.1
v -0.1 2.2 -0.1
v -0.1 2.3 -0.1
v -0.1 2.4 -0.1
v -0.1 2.5 -0.1
v 0.1 0.3 -0.1
v 0.1 0.4 -0.1
v 0.1 0.5 -0.1
v 0.1 0.6 -0.1
v 0.1 0.8 -0.1
v 0.1 0.9 -0.1
v 0.1 1.2 -0.1
v 0.1 1.3 -0.1
v 0.1 1.5 -0.1
v 0.1 1.6 -0.1
v 0.1 1.9 -0.1
v 0.1 2 -0.1
v 0.1 2.2 -0.1
v 0.1 2.3 -0.1
v 0.1 2.4 -0.1
v 0.1 2.5 -0.1
v 0.2 0.3 -0.1
v 0.2 0.4 -0.1
v 0.2 0.5 -0.1
v 0.2 0.9 -0.1
v 0.2 1 -0.1
v 0.2 1.1 -0.1
v 0.2 1.2 -0.1
v 0.2 1.6 -0.1
v 0.2 1.7 -0.1
v 0.2 1.8 -0.1
v 0.2 1.9 -0.1
v 0.2 2.3 -0.1
v 0.2 2.4 -0.1
v 0.2 2.5 -0.1
v 0.3 0.3 -0.1
v 0.3 0.4 -0.1
v 0.3 0.5 -0.1
v 0.3 0.9 -0.1
v 0.3 1 -0.1
v 0.3 1.1 -0.1
v 0.3 1.7 -0.1
v 0.3 1.8 -0.1
v 0.3 1.9 -0.1
v 0.3 2.3 -0.1
v 0.3 2.4 -0.1
v 0.3 2.5 -0.1
v 0.4 0.1 -0.1
v 0.4 0.2 -0.1
v 0.4 0.5 -0.1
v 0.4 0.6 -0.1
v 0.4 0.7 -0.1
v 0.4 1.2 -0.1
v 0.4 1.6 -0.1
v 0.4 2.1 -0.1
v 0.4 2.2 -0.1
v 0.4 2.3 -0.1
v 0.4 2.6 -0.1
v 0.4 2.7 -0.1
v 0.5 0.3 -0.1
v 0.5 0.5 -0.1
v 0.5 0.6 -0.1
v 0.5 0.7 -0.1
v 0.5 1.2 -0.1
v 0.5 1.6 -0.1
v 0.5 2.1 -0.1
v 0.5 2.2 -0.1
v 0.5 2.3 -0.1
v 0.5 2.5 -0.1
v 0.7 0.1 -0.1
v 0.7 0.3 -0.1
v 0.7 0.5 -0.1
v 0.7 0.7 -0.1
v 0.7 0.8 -0.1
v 0.7 0.9 -0.1
v 0.7 1.2 -0.1
v 0.7 1.6 -0.1
v 0.7 1.9 -0.1
v 0.7 2 -0.1
v 0.7 2.1 -0.1
v 0.7 2.3 -0.1
v 0.7 2.5 -0.1
v 0.7 2.7 -0.1
v 0.8 0.1 -0.1
v 0.8 0.2 -0.1
v 0.8 0.7 -0.1
v 0.8 0.8 -0.1
v 0.8 0.9 -0.1
v 0.8 1.2 -0.1
v 0.8 1.3 -0.1
v 0.8 1.5 -0.1
v 0.8 1.6 -0.1
v 0.8 1.9 -0.1
v 0.8 2 -0.1
v 0.8 2.1 -0.1
v 0.8 2.6 -0.1
v 0.8 2.7 -0.1
v 0.9 0 -0.1
v 0.9 0.1 -0.1
v 0.9 0.2 -0.1
v 0.9 0.3 -0.1
v 0.9 1.2 -0.1
v 0.9 1.3 -0.1
v 0.9 1.5 -0.1
v 0.9 1.6 -0.1
v 0.9 2.5 -0.1
v 0.9 2.6 -0.1
v 0.9 2.7 -0.1
v 0.9 2.8 -0.1
v 1 0.1 -0.1
v 1 2.7 -0.1
v -0.9 0 0.1
v 0.9 0 0.1
v -0.9 0 0
v 0.9 0 0
v -0.9 0 -0.1
v 0.9 0 -0.1
v -1 0.1 0.1
v -0.9 0.1 0.1
v 0.9 0.1 0.1
v 1 0.1 0.1
v -1 0.1 0
v -0.9 0.1 0
v 0.9 0.1 0
v 1 0.1 0
v -1 0.1 -0.1
v -0.9 0.1 -0.1
v 0.9 0.1 -0.1
v 1 0.1 -0.1
v -1 2.7 0.1
v -0.9 2.7 0.1
v 0.9 2.7 0.1
v 1 2.7 0.1
v -1 2.7 0
v -0.9 2.7 0
v 0.9 2.7 0
v 1 2.7 0
v -1 2.7 -0.1
v -0.9 2.7 -0.1
v 0.9 2.7 -0.1
v 1 2.7 -0.1
v -0.9 2.8 0.1
v 0.9 2.8 0.1
v -0.9 2.8 0
v 0.9 2.8 0
v -0.9 2.8 -0.1
v 0.9 2.8 -0.1

# faces
f 4/2/1 2/2/1 1/2/1
f 5/1/1 3/1/1 2/1/1
f 5/2/1 2/2/1 4/2/1
f 6/1/1 3/1/1 5/1/1
f 10/2/1 8/2/1 7/2/1
f 11/1/1 9/1/1 8/1/1
f 11/2/1 8/2/1 10/2/1
f 12/1/1 9/1/1 11/1/1
f 16/2/1 14/2/1 13/2/1
f 17/1/1 15/1/1 14/1/1
f 17/2/1 14/2/1 16/2/1
f 18/1/1 15/1/1 17/1/1
f 19/2/2 20/2/2 22/2/2
f 20/1/2 21/1/2 23/1/2
f 22/2/2 20/2/2 23/2/2
f 23/1/2 21/1/2 24/1/2
f 25/2/2 26/2/2 28/2/2
f 26/1/2 27/1/2 29/1/2
f 28/2/2 26/2/2 29/2/2
f 29/1/2 27/1/2 30/1/2
f 31/2/2 32/2/2 34/2/2
f 32/1/2 33/1/2 35/1/2
f 34/2/2 32/2/2 35/2/2
f 35/1/2 33/1/2 36/1/2
f 40/2/3 38/2/3 37/2/3
f 41/2/3 38/2/3 40/2/3
f 42/2/3 38/2/3 41/2/3
f 43/2/3 38/2/3 42/2/3
f 45/2/3 40/2/3 39/2/3
f 45/2/3 41/2/3 40/2/3
f 46/1/3 42/1/3 41/1/3
f 46/2/3 41/2/3 45/2/3
f 47/1/3 42/1/3 46/1/3
f 48/1/3 42/1/3 47/1/3
f 49/2/3 44/2/3 43/2/3
f 49/1/3 42/1/3 48/1/3
f 49/2/3 43/2/3 42/2/3
f 50/2/3 44/2/3 49/2/3
f 51/1/3 47/1/3 46/1/3
f 51/1/3 46/1/3 45/1/3
f 52/2/3 48/2/3 47/2/3
f 52/1/3 47/1/3 51/1/3
f 53/2/3 48/2/3 52/2/3
f 54/2/3 48/2/3 53/2/3
f 55/1/3 50/1/3 49/1/3
f 55/2/3 48/2/3 54/2/3
f 55/1/3 49/1/3 48/1/3
f 56/1/3 50/1/3 55/1/3
f 57/2/3 53/2/3 52/2/3
f 57/2/3 52/2/3 51/2/3
f 58/2/3 53/2/3 57/2/3
f 59/2/3 53/2/3 58/2/3
f 60/2/3 53/2/3 59/2/3
f 61/1/3 54/1/3 53/1/3
f 61/2/3 53/2/3 60/2/3
f 62/1/3 54/1/3 61/1/3
f 63/1/3 54/1/3 62/1/3
f 64/2/3 56/2/3 55/2/3
f 64/1/3 54/1/3 63/1/3
f 64/2/3 55/2/3 54/2/3
f 65/2/3 62/2/3 61/2/3
f 65/2/3 61/2/3 60/2/3
f 66/1/3 63/1/3 62/1/3
f 66/2/3 62/2/3 65/2/3
f 67/2/3 64/2/3 63/2/3
f 67/1/3 63/1/3 66/1/3
f 68/2/3 64/2/3 67/2/3
f 69/2/3 57/2/3 51/2/3
f 69/1/3 58/1/3 57/1/3
f 70/2/3 59/2/3 58/2/3
f 70/1/3 58/1/3 69/1/3
f 71/1/3 60/1/3 59/1/3
f 71/2/3 59/2/3 70/2/3
f 72/2/3 65/2/3 60/2/3
f 72/1/3 60/1/3 71/1/3
f 73/2/3 65/2/3 72/2/3
f 74/1/3 66/1/3 65/1/3
f 74/2/3 65/2/3 73/2/3
f 75/2/3 67/2/3 66/2/3
f 75/1/3 66/1/3 74/1/3
f 76/1/3 68/1/3 67/1/3
f 76/2/3 67/2/3 75/2/3
f 77/2/3 64/2/3 68/2/3
f 77/1/3 68/1/3 76/1/3
f 78/2/3 56/2/3 64/2/3
f 78/2/3 64/2/3 77/2/3
f 79/1/3 71/1/3 70/1/3
f 80/1/3 71/1/3 79/1/3
f 81/2/3 73/2/3 72/2/3
f 81/1/3 74/1/3 73/1/3
f 81/2/3 72/2/3 71/2/3
f 82/2/3 77/2/3 76/2/3
f 82/1/3 74/1/3 81/1/3
f 82/2/3 76/2/3 75/2/3
f 82/2/3 75/2/3 74/2/3
f 83/1/3 78/1/3 77/1/3
f 83/2/3 77/2/3 82/2/3
f 84/2/3 56/2/3 78/2/3
f 84/1/3 78/1/3 83/1/3
f 85/2/3 70/2/3 69/2/3
f 85/2/3 69/2/3 51/2/3
f 86/1/3 79/1/3 70/1/3
f 86/2/3 70/2/3 85/2/3
f 87/2/3 80/2/3 79/2/3
f 87/1/3 79/1/3 86/1/3
f 88/2/3 80/2/3 87/2/3
f 89/2/3 80/2/3 88/2/3
f 90/1/3 71/1/3 80/1/3
f 90/2/3 80/2/3 89/2/3
f 91/2/3 83/2/3 82/2/3
f 91/1/3 71/1/3 90/1/3
f 91/2/3 81/2/3 71/2/3
f 91/2/3 82/2/3 81/2/3
f 91/2/3 84/2/3 83/2/3
f 92/2/3 84/2/3 91/2/3
f 93/2/3 85/2/3 51/2/3
f 94/1/3 88/1/3 87/1/3
f 94/2/3 85/2/3 93/2/3
f 94/1/3 87/1/3 86/1/3
f 94/1/3 86/1/3 85/1/3
f 95/1/3 88/1/3 94/1/3
f 96/1/3 88/1/3 95/1/3
f 97/2/3 89/2/3 88/2/3
f 97/1/3 88/1/3 96/1/3
f 98/1/3 90/1/3 89/1/3
f 98/2/3 89/2/3 97/2/3
f 98/1/3 92/1/3 91/1/3
f 98/1/3 91/1/3 90/1/3
f 99/1/3 92/1/3 98/1/3
f 100/1/3 92/1/3 99/1/3
f 101/2/3 84/2/3 92/2/3
f 101/1/3 92/1/3 100/1/3
f 102/2/3 84/2/3 101/2/3
f 103/2/3 93/2/3 51/2/3
f 103/1/3 94/1/3 93/1/3
f 104/2/3 95/2/3 94/2/3
f 104/1/3 94/1/3 103/1/3
f 105/1/3 96/1/3 95/1/3
f 105/2/3 95/2/3 104/2/3
f 106/2/3 97/2/3 96/2/3
f 106/1/3 96/1/3 105/1/3
f 107/1/3 98/1/3 97/1/3
f 107/2/3 97/2/3 106/2/3
f 108/2/3 99/2/3 98/2/3
f 108/1/3 98/1/3 107/1/3
f 109/1/3 100/1/3 99/1/3
f 109/2/3 99/2/3 108/2/3
f 110/2/3 101/2/3 100/2/3
f 110/1/3 100/1/3 109/1/3
f 111/1/3 102/1/3 101/1/3
f 111/2/3 101/2/3 110/2/3
f 112/2/3 84/2/3 102/2/3
f 112/1/3 102/1/3 111/1/3
f 113/1/3 105/1/3 104/1/3
f 113/2/3 104/2/3 103/2/3
f 113/1/3 106/1/3 105/1/3
f 113/1/3 107/1/3 106/1/3
f 114/1/3 107/1/3 113/1/3
f 115/1/3 107/1/3 114/1/3
f 116/2/3 108/2/3 107/2/3
f 116/1/3 107/1/3 115/1/3
f 117/1/3 111/1/3 110/1/3
f 117/2/3 108/2/3 116/2/3
f 117/1/3 110/1/3 109/1/3
f 117/1/3 109/1/3 108/1/3
f 118/1/3 111/1/3 117/1/3
f 119/1/3 111/1/3 118/1/3
f 120/2/3 112/2/3 111/2/3
f 120/1/3 111/1/3 119/1/3
f 121/2/3 103/2/3 51/2/3
f 121/2/3 114/2/3 113/2/3
f 121/2/3 113/2/3 103/2/3
f 122/2/3 114/2/3 121/2/3
f 123/2/3 114/2/3 122/2/3
f 124/2/3 114/2/3 123/2/3
f 125/2/3 116/2/3 115/2/3
f 125/1/3 115/1/3 114/1/3
f 125/2/3 118/2/3 117/2/3
f 125/2/3 117/2/3 116/2/3
f 126/1/3 119/1/3 118/1/3
f 126/2/3 118/2/3 125/2/3
f 127/1/3 122/1/3 121/1/3
f 127/2/3 121/2/3 51/2/3
f 128/2/3 123/2/3 122/2/3
f 128/1/3 122/1/3 127/1/3
f 129/2/3 123/2/3 128/2/3
f 130/2/3 123/2/3 129/2/3
f 131/1/3 124/1/3 123/1/3
f 131/2/3 123/2/3 130/2/3
f 132/2/3 114/2/3 124/2/3
f 132/1/3 124/1/3 131/1/3
f 133/2/3 114/2/3 132/2/3
f 134/1/3 125/1/3 114/1/3
f 134/2/3 114/2/3 133/2/3
f 134/1/3 126/1/3 125/1/3
f 135/2/3 120/2/3 119/2/3
f 135/1/3 126/1/3 134/1/3
f 135/1/3 119/1/3 126/1/3
f 136/2/3 112/2/3 120/2/3
f 136/2/3 120/2/3 135/2/3
f 137/1/3 129/1/3 128/1/3
f 137/2/3 128/2/3 127/2/3
f 138/2/3 130/2/3 129/2/3
f 138/1/3 129/1/3 137/1/3
f 139/1/3 131/1/3 130/1/3
f 139/2/3 130/2/3 138/2/3
f 140/2/3 133/2/3 132/2/3
f 140/1/3 131/1/3 139/1/3
f 140/2/3 132/2/3 131/2/3
f 141/2/3 138/2/3 137/2/3
f 141/2/3 137/2/3 127/2/3
f 141/2/3 127/2/3 51/2/3
f 142/1/3 139/1/3 138/1/3
f 142/2/3 138/2/3 141/2/3
f 143/2/3 140/2/3 139/2/3
f 143/1/3 139/1/3 142/1/3
f 144/2/3 133/2/3 140/2/3
f 144/2/3 140/2/3 143/2/3
f 145/1/3 134/1/3 133/1/3
f 145/2/3 133/2/3 144/2/3
f 146/2/3 135/2/3 134/2/3
f 146/1/3 134/1/3 145/1/3
f 147/1/3 136/1/3 135/1/3
f 147/2/3 135/2/3 146/2/3
f 148/2/3 112/2/3 136/2/3
f 148/1/3 136/1/3 147/1/3
f 149/1/3 51/1/3 45/1/3
f 149/2/3 141/2/3 51/2/3
f 150/2/3 141/2/3 149/2/3
f 151/1/3 143/1/3 142/1/3
f 151/2/3 141/2/3 150/2/3
f 151/1/3 142/1/3 141/1/3
f 151/1/3 144/1/3 143/1/3
f 152/2/3 145/2/3 144/2/3
f 152/1/3 144/1/3 151/1/3
f 152/2/3 147/2/3 146/2/3
f 152/2/3 146/2/3 145/2/3
f 152/2/3 148/2/3 147/2/3
f 153/2/3 112/2/3 148/2/3
f 153/2/3 148/2/3 152/2/3
f 153/2/3 56/2/3 84/2/3
f 153/2/3 84/2/3 112/2/3
f 154/1/3 50/1/3 56/1/3
f 154/2/3 56/2/3 153/2/3
f 155/2/3 45/2/3 39/2/3
f 155/1/3 149/1/3 45/1/3
f 155/1/3 150/1/3 149/1/3
f 156/1/3 150/1/3 155/1/3
f 157/2/3 152/2/3 151/2/3
f 157/1/3 150/1/3 156/1/3
f 157/2/3 153/2/3 152/2/3
f 157/2/3 151/2/3 150/2/3
f 158/1/3 154/1/3 153/1/3
f 158/2/3 153/2/3 157/2/3
f 159/1/3 50/1/3 154/1/3
f 159/1/3 154/1/3 158/1/3
f 160/2/3 44/2/3 50/2/3
f 160/1/3 50/1/3 159/1/3
f 161/2/3 156/2/3 155/2/3
f 161/2/3 155/2/3 39/2/3
f 162/2/3 156/2/3 161/2/3
f 163/1/3 159/1/3 158/1/3
f 163/2/3 156/2/3 162/2/3
f 163/1/3 158/1/3 157/1/3
f 163/1/3 157/1/3 156/1/3
f 164/2/3 160/2/3 159/2/3
f 164/1/3 159/1/3 163/1/3
f 165/2/3 44/2/3 160/2/3
f 165/2/3 160/2/3 164/2/3
f 166/2/3 44/2/3 165/2/3
f 167/2/3 164/2/3 163/2/3
f 167/2/3 165/2/3 164/2/3
f 167/2/3 163/2/3 162/2/3
f 168/2/3 165/2/3 167/2/3
f 169/1/4 170/1/4 172/1/4
f 172/1/4 170/1/4 173/1/4
f 173/1/4 170/1/4 174/1/4
f 174/1/4 170/1/4 175/1/4
f 175/1/4 170/1/4 176/1/4
f 176/1/4 170/1/4 177/1/4
f 177/1/4 170/1/4 178/1/4
f 178/1/4 170/1/4 179/1/4
f 179/1/4 170/1/4 180/1/4
f 180/1/4 170/1/4 181/1/4
f 171/1/4 172/1/4 183/1/4
f 172/1/4 173/1/4 183/1/4
f 173/3/4 174/3/4 184/3/4
f 183/1/4 173/1/4 184/1/4
f 174/1/4 175/1/4 185/1/4
f 185/1/4 175/1/4 186/1/4
f 186/1/4 175/1/4 187/1/4
f 175/3/4 176/3/4 188/3/4
f 187/1/4 175/1/4 188/1/4
f 176/1/4 177/1/4 189/1/4
f 188/3/4 176/3/4 189/3/4
f 177/3/4 178/3/4 190/3/4
f 189/1/4 177/1/4 190/1/4
f 178/1/4 179/1/4 191/1/4
f 190/3/4 178/3/4 191/3/4
f 191/1/4 179/1/4 192/1/4
f 192/1/4 179/1/4 193/1/4
f 193/1/4 179/1/4 194/1/4
f 181/1/4 182/1/4 195/1/4
f 180/1/4 181/1/4 195/1/4
f 179/3/4 180/3/4 195/3/4
f 195/1/4 182/1/4 196/1/4
f 171/1/4 183/1/4 197/1/4
f 183/3/4 184/3/4 197/3/4
f 184/3/4 174/3/4 198/3/4
f 197/3/4 184/3/4 198/3/4
f 174/1/4 185/1/4 198/1/4
f 198/1/4 185/1/4 199/1/4
f 185/3/4 186/3/4 200/3/4
f 199/1/4 185/1/4 200/1/4
f 186/1/4 187/1/4 201/1/4
f 200/3/4 186/3/4 201/3/4
f 187/3/4 188/3/4 202/3/4
f 201/1/4 187/1/4 202/1/4
f 188/1/4 189/1/4 203/1/4
f 202/3/4 188/3/4 203/3/4
f 190/1/4 191/1/4 204/1/4
f 191/3/4 192/3/4 204/3/4
f 192/1/4 193/1/4 205/1/4
f 204/3/4 192/3/4 205/3/4
f 193/3/4 194/3/4 206/3/4
f 205/1/4 193/1/4 206/1/4
f 194/1/4 179/1/4 207/1/4
f 206/3/4 194/3/4 207/3/4
f 207/1/4 179/1/4 208/1/4
f 195/3/4 196/3/4 209/3/4
f 208/1/4 179/1/4 209/1/4
f 179/3/4 195/3/4 209/3/4
f 196/1/4 182/1/4 210/1/4
f 209/3/4 196/3/4 210/3/4
f 198/3/4 199/3/4 211/3/4
f 197/1/4 198/1/4 211/1/4
f 199/1/4 200/1/4 212/1/4
f 211/3/4 199/3/4 212/3/4
f 200/1/4 201/1/4 212/1/4
f 201/1/4 202/1/4 212/1/4
f 202/1/4 203/1/4 212/1/4
f 212/1/4 203/1/4 213/1/4
f 213/1/4 203/1/4 214/1/4
f 203/1/4 189/1/4 215/1/4
f 214/1/4 203/1/4 215/1/4
f 205/1/4 206/1/4 216/1/4
f 204/1/4 205/1/4 216/1/4
f 190/1/4 204/1/4 216/1/4
f 207/1/4 208/1/4 216/1/4
f 206/1/4 207/1/4 216/1/4
f 216/1/4 208/1/4 217/1/4
f 217/1/4 208/1/4 218/1/4
f 208/3/4 209/3/4 219/3/4
f 218/1/4 208/1/4 219/1/4
f 209/1/4 210/1/4 220/1/4
f 219/3/4 209/3/4 220/3/4
f 171/1/4 197/1/4 221/1/4
f 197/1/4 211/1/4 221/1/4
f 211/1/4 212/1/4 221/1/4
f 221/1/4 212/1/4 222/1/4
f 212/3/4 213/3/4 223/3/4
f 222/1/4 212/1/4 223/1/4
f 213/1/4 214/1/4 224/1/4
f 223/3/4 213/3/4 224/3/4
f 214/3/4 215/3/4 225/3/4
f 224/1/4 214/1/4 225/1/4
f 215/1/4 189/1/4 226/1/4
f 225/3/4 215/3/4 226/3/4
f 216/3/4 217/3/4 227/3/4
f 190/1/4 216/1/4 227/1/4
f 217/1/4 218/1/4 228/1/4
f 227/3/4 217/3/4 228/3/4
f 218/3/4 219/3/4 229/3/4
f 228/1/4 218/1/4 229/1/4
f 219/1/4 220/1/4 230/1/4
f 229/3/4 219/3/4 230/3/4
f 220/1/4 210/1/4 231/1/4
f 230/1/4 220/1/4 231/1/4
f 210/1/4 182/1/4 232/1/4
f 231/1/4 210/1/4 232/1/4
f 224/1/4 225/1/4 233/1/4
f 223/1/4 224/1/4 233/1/4
f 222/1/4 223/1/4 233/1/4
f 225/1/4 226/1/4 233/1/4
f 233/1/4 226/1/4 234/1/4
f 234/1/4 226/1/4 235/1/4
f 235/1/4 226/1/4 236/1/4
f 236/1/4 226/1/4 237/1/4
f 237/1/4 226/1/4 238/1/4
f 229/1/4 230/1/4 239/1/4
f 228/1/4 229/1/4 239/1/4
f 227/1/4 228/1/4 239/1/4
f 230/1/4 231/1/4 239/1/4
f 239/1/4 231/1/4 240/1/4
f 240/1/4 231/1/4 241/1/4
f 241/1/4 231/1/4 242/1/4
f 242/1/4 231/1/4 243/1/4
f 243/1/4 231/1/4 244/1/4
f 222/1/4 233/1/4 245/1/4
f 233/3/4 234/3/4 245/3/4
f 234/1/4 235/1/4 246/1/4
f 245/3/4 234/3/4 246/3/4
f 235/3/4 236/3/4 247/3/4
f 246/1/4 235/1/4 247/1/4
f 236/1/4 237/1/4 248/1/4
f 247/3/4 236/3/4 248/3/4
f 237/3/4 238/3/4 249/3/4
f 248/1/4 237/1/4 249/1/4
f 238/1/4 226/1/4 250/1/4
f 249/3/4 238/3/4 250/3/4
f 226/1/4 189/1/4 251/1/4
f 250/1/4 226/1/4 251/1/4
f 190/1/4 227/1/4 252/1/4
f 227/1/4 239/1/4 252/1/4
f 239/3/4 240/3/4 253/3/4
f 252/1/4 239/1/4 253/1/4
f 240/1/4 241/1/4 254/1/4
f 253/3/4 240/3/4 254/3/4
f 241/3/4 242/3/4 255/3/4
f 254/1/4 241/1/4 255/1/4
f 242/1/4 243/1/4 256/1/4
f 255/3/4 242/3/4 256/3/4
f 243/3/4 244/3/4 257/3/4
f 256/1/4 243/1/4 257/1/4
f 244/1/4 231/1/4 258/1/4
f 257/3/4 244/3/4 258/3/4
f 248/1/4 249/1/4 259/1/4
f 247/1/4 248/1/4 259/1/4
f 246/1/4 247/1/4 259/1/4
f 249/1/4 250/1/4 259/1/4
f 245/1/4 246/1/4 259/1/4
f 222/1/4 245/1/4 259/1/4
f 259/1/4 250/1/4 260/1/4
f 260/1/4 250/1/4 261/1/4
f 261/1/4 250/1/4 262/1/4
f 262/1/4 250/1/4 263/1/4
f 263/1/4 250/1/4 264/1/4
f 251/1/4 189/1/4 265/1/4
f 250/3/4 251/3/4 265/3/4
f 189/3/4 190/3/4 266/3/4
f 265/1/4 189/1/4 266/1/4
f 190/1/4 252/1/4 267/1/4
f 266/3/4 190/3/4 267/3/4
f 252/3/4 253/3/4 268/3/4
f 267/1/4 252/1/4 268/1/4
f 257/1/4 258/1/4 269/1/4
f 254/1/4 255/1/4 269/1/4
f 253/1/4 254/1/4 269/1/4
f 256/1/4 257/1/4 269/1/4
f 255/1/4 256/1/4 269/1/4
f 269/1/4 258/1/4 270/1/4
f 270/1/4 258/1/4 271/1/4
f 271/1/4 258/1/4 272/1/4
f 272/1/4 258/1/4 273/1/4
f 258/1/4 231/1/4 274/1/4
f 273/1/4 258/1/4 274/1/4
f 222/1/4 259/1/4 275/1/4
f 259/3/4 260/3/4 275/3/4
f 260/1/4 261/1/4 276/1/4
f 275/3/4 260/3/4 276/3/4
f 261/3/4 262/3/4 277/3/4
f 276/1/4 261/1/4 277/1/4
f 262/1/4 263/1/4 278/1/4
f 277/3/4 262/3/4 278/3/4
f 263/3/4 264/3/4 279/3/4
f 278/1/4 263/1/4 279/1/4
f 264/1/4 250/1/4 280/1/4
f 279/3/4 264/3/4 280/3/4
f 250/3/4 265/3/4 281/3/4
f 265/3/4 266/3/4 281/3/4
f 266/1/4 267/1/4 282/1/4
f 281/3/4 266/3/4 282/3/4
f 267/3/4 268/3/4 283/3/4
f 282/1/4 267/1/4 283/1/4
f 268/3/4 253/3/4 284/3/4
f 283/3/4 268/3/4 284/3/4
f 253/1/4 269/1/4 285/1/4
f 269/3/4 270/3/4 285/3/4
f 270/1/4 271/1/4 286/1/4
f 285/3/4 270/3/4 286/3/4
f 271/3/4 272/3/4 287/3/4
f 286/1/4 271/1/4 287/1/4
f 272/1/4 273/1/4 288/1/4
f 287/3/4 272/3/4 288/3/4
f 273/3/4 274/3/4 289/3/4
f 288/1/4 273/1/4 289/1/4
f 274/1/4 231/1/4 290/1/4
f 289/3/4 274/3/4 290/3/4
f 278/1/4 279/1/4 291/1/4
f 276/1/4 277/1/4 291/1/4
f 275/1/4 276/1/4 291/1/4
f 222/1/4 275/1/4 291/1/4
f 279/1/4 280/1/4 291/1/4
f 277/1/4 278/1/4 291/1/4
f 291/1/4 280/1/4 292/1/4
f 292/1/4 280/1/4 293/1/4
f 280/1/4 250/1/4 294/1/4
f 293/1/4 280/1/4 294/1/4
f 294/1/4 250/1/4 295/1/4
f 250/3/4 281/3/4 296/3/4
f 295/1/4 250/1/4 296/1/4
f 281/1/4 282/1/4 297/1/4
f 296/3/4 281/3/4 297/3/4
f 283/1/4 284/1/4 298/1/4
f 284/3/4 253/3/4 298/3/4
f 286/1/4 287/1/4 299/1/4
f 298/3/4 253/3/4 299/3/4
f 289/1/4 290/1/4 299/1/4
f 285/1/4 286/1/4 299/1/4
f 253/1/4 285/1/4 299/1/4
f 288/1/4 289/1/4 299/1/4
f 287/1/4 288/1/4 299/1/4
f 299/1/4 290/1/4 300/1/4
f 300/1/4 290/1/4 301/1/4
f 301/1/4 290/1/4 302/1/4
f 302/1/4 290/1/4 303/1/4
f 290/1/4 231/1/4 304/1/4
f 303/1/4 290/1/4 304/1/4
f 291/3/4 292/3/4 305/3/4
f 222/1/4 291/1/4 305/1/4
f 292/1/4 293/1/4 306/1/4
f 305/3/4 292/3/4 306/3/4
f 293/3/4 294/3/4 307/3/4
f 306/1/4 293/1/4 307/1/4
f 294/1/4 295/1/4 308/1/4
f 307/3/4 294/3/4 308/3/4
f 295/3/4 296/3/4 309/3/4
f 308/1/4 295/1/4 309/1/4
f 296/1/4 297/1/4 310/1/4
f 309/3/4 296/3/4 310/3/4
f 298/1/4 299/1/4 311/1/4
f 299/3/4 300/3/4 311/3/4
f 300/1/4 301/1/4 312/1/4
f 311/3/4 300/3/4 312/3/4
f 301/3/4 302/3/4 313/3/4
f 312/1/4 301/1/4 313/1/4
f 302/1/4 303/1/4 314/1/4
f 313/3/4 302/3/4 314/3/4
f 303/3/4 304/3/4 315/3/4
f 314/1/4 303/1/4 315/1/4
f 304/1/4 231/1/4 316/1/4
f 315/3/4 304/3/4 316/3/4
f 171/1/4 221/1/4 317/1/4
f 221/3/4 222/3/4 317/3/4
f 307/1/4 308/1/4 318/1/4
f 317/3/4 222/3/4 318/3/4
f 222/1/4 305/1/4 318/1/4
f 305/1/4 306/1/4 318/1/4
f 306/1/4 307/1/4 318/1/4
f 309/1/4 310/1/4 318/1/4
f 308/1/4 309/1/4 318/1/4
f 318/1/4 310/1/4 319/1/4
f 319/1/4 310/1/4 320/1/4
f 320/1/4 310/1/4 321/1/4
f 310/1/4 297/1/4 322/1/4
f 321/1/4 310/1/4 322/1/4
f 297/1/4 282/1/4 322/1/4
f 312/1/4 313/1/4 323/1/4
f 283/1/4 298/1/4 323/1/4
f 311/1/4 312/1/4 323/1/4
f 315/1/4 316/1/4 323/1/4
f 298/1/4 311/1/4 323/1/4
f 314/1/4 315/1/4 323/1/4
f 313/1/4 314/1/4 323/1/4
f 323/1/4 316/1/4 324/1/4
f 324/1/4 316/1/4 325/1/4
f 325/1/4 316/1/4 326/1/4
f 231/3/4 232/3/4 327/3/4
f 326/1/4 316/1/4 327/1/4
f 316/1/4 231/1/4 327/1/4
f 232/1/4 182/1/4 328/1/4
f 327/3/4 232/3/4 328/3/4
f 318/1/4 319/1/4 329/1/4
f 317/1/4 318/1/4 329/1/4
f 319/3/4 320/3/4 330/3/4
f 329/1/4 319/1/4 330/1/4
f 320/1/4 321/1/4 331/1/4
f 330/3/4 320/3/4 331/3/4
f 321/3/4 322/3/4 332/3/4
f 331/1/4 321/1/4 332/1/4
f 322/1/4 282/1/4 333/1/4
f 332/3/4 322/3/4 333/3/4
f 283/1/4 323/1/4 334/1/4
f 323/3/4 324/3/4 334/3/4
f 324/1/4 325/1/4 335/1/4
f 334/3/4 324/3/4 335/3/4
f 325/3/4 326/3/4 336/3/4
f 335/1/4 325/1/4 336/1/4
f 326/1/4 327/1/4 337/1/4
f 336/3/4 326/3/4 337/3/4
f 327/1/4 328/1/4 337/1/4
f 337/1/4 328/1/4 338/1/4
f 171/1/4 317/1/4 339/1/4
f 317/1/4 329/1/4 339/1/4
f 329/3/4 330/3/4 340/3/4
f 339/1/4 329/1/4 340/1/4
f 331/1/4 332/1/4 341/1/4
f 340/3/4 330/3/4 341/3/4
f 330/1/4 331/1/4 341/1/4
f 332/1/4 333/1/4 341/1/4
f 341/1/4 333/1/4 342/1/4
f 342/1/4 333/1/4 343/1/4
f 343/1/4 333/1/4 344/1/4
f 333/1/4 282/1/4 345/1/4
f 344/1/4 333/1/4 345/1/4
f 335/1/4 336/1/4 346/1/4
f 334/1/4 335/1/4 346/1/4
f 336/1/4 337/1/4 346/1/4
f 283/1/4 334/1/4 346/1/4
f 346/1/4 337/1/4 347/1/4
f 347/1/4 337/1/4 348/1/4
f 348/1/4 337/1/4 349/1/4
f 337/3/4 338/3/4 350/3/4
f 349/1/4 337/1/4 350/1/4
f 338/1/4 328/1/4 351/1/4
f 350/3/4 338/3/4 351/3/4
f 328/1/4 182/1/4 352/1/4
f 351/1/4 328/1/4 352/1/4
f 339/3/4 340/3/4 353/3/4
f 171/1/4 339/1/4 353/1/4
f 353/3/4 340/3/4 354/3/4
f 342/3/4 343/3/4 355/3/4
f 341/1/4 342/1/4 355/1/4
f 340/1/4 341/1/4 355/1/4
f 343/1/4 344/1/4 356/1/4
f 355/3/4 343/3/4 356/3/4
f 344/3/4 345/3/4 357/3/4
f 356/1/4 344/1/4 357/1/4
f 345/1/4 282/1/4 358/1/4
f 357/3/4 345/3/4 358/3/4
f 282/3/4 283/3/4 359/3/4
f 358/1/4 282/1/4 359/1/4
f 283/1/4 346/1/4 360/1/4
f 359/3/4 283/3/4 360/3/4
f 346/3/4 347/3/4 361/3/4
f 360/1/4 346/1/4 361/1/4
f 347/1/4 348/1/4 362/1/4
f 361/3/4 347/3/4 362/3/4
f 348/3/4 349/3/4 363/3/4
f 362/1/4 348/1/4 363/1/4
f 349/1/4 350/1/4 364/1/4
f 363/3/4 349/3/4 364/3/4
f 350/1/4 351/1/4 364/1/4
f 351/3/4 352/3/4 365/3/4
f 352/1/4 182/1/4 366/1/4
f 365/3/4 352/3/4 366/3/4
f 353/1/4 354/1/4 367/1/4
f 171/1/4 353/1/4 367/1/4
f 367/1/4 354/1/4 368/1/4
f 354/3/4 340/3/4 369/3/4
f 368/1/4 354/1/4 369/1/4
f 356/1/4 357/1/4 370/1/4
f 369/3/4 340/3/4 370/3/4
f 355/1/4 356/1/4 370/1/4
f 357/1/4 358/1/4 370/1/4
f 340/1/4 355/1/4 370/1/4
f 358/3/4 359/3/4 371/3/4
f 370/1/4 358/1/4 371/1/4
f 359/1/4 360/1/4 372/1/4
f 371/3/4 359/3/4 372/3/4
f 360/3/4 361/3/4 373/3/4
f 372/1/4 360/1/4 373/1/4
f 363/1/4 364/1/4 374/1/4
f 373/3/4 361/3/4 374/3/4
f 362/1/4 363/1/4 374/1/4
f 361/1/4 362/1/4 374/1/4
f 351/3/4 365/3/4 375/3/4
f 374/1/4 364/1/4 375/1/4
f 364/1/4 351/1/4 375/1/4
f 365/1/4 366/1/4 376/1/4
f 375/3/4 365/3/4 376/3/4
f 366/1/4 182/1/4 377/1/4
f 376/1/4 366/1/4 377/1/4
f 377/1/4 182/1/4 378/1/4
f 368/1/4 369/1/4 379/1/4
f 373/1/4 374/1/4 379/1/4
f 376/1/4 377/1/4 379/1/4
f 374/1/4 375/1/4 379/1/4
f 370/1/4 371/1/4 379/1/4
f 371/1/4 372/1/4 379/1/4
f 375/1/4 376/1/4 379/1/4
f 369/1/4 370/1/4 379/1/4
f 372/1/4 373/1/4 379/1/4
f 379/1/4 377/1/4 380/1/4
f 383/2/5 382/2/5 381/2/5
f 384/2/5 382/2/5 383/2/5
f 385/1/5 384/1/5 383/1/5
f 386/1/5 384/1/5 385/1/5
f 391/2/5 388/2/5 387/2/5
f 392/2/5 388/2/5 391/2/5
f 393/2/5 390/2/5 389/2/5
f 394/2/5 390/2/5 393/2/5
f 395/1/5 392/1/5 391/1/5
f 396/1/5 392/1/5 395/1/5
f 397/1/5 394/1/5 393/1/5
f 398/1/5 394/1/5 397/1/5
f 399/2/6 400/2/6 403/2/6
f 403/2/6 400/2/6 404/2/6
f 401/2/6 402/2/6 405/2/6
f 405/2/6 402/2/6 406/2/6
f 403/1/6 404/1/6 407/1/6
f 407/1/6 404/1/6 408/1/6
f 405/1/6 406/1/6 409/1/6
f 409/1/6 406/1/6 410/1/6
f 411/2/6 412/2/6 413/2/6
f 413/2/6 412/2/6 414/2/6
f 413/1/6 414/1/6 415/1/6
f 415/1/6 414/1/6 416/1/6
