# MagicaVoxel @ Ephtracy

# group
o 

# material
mtllib wand.mtl
usemtl palette

# normals
vn -1 0 0
vn 1 0 0
vn 0 0 1
vn 0 0 -1
vn 0 -1 0
vn 0 1 0

# texcoords
vt 0.962891 0.5
vt 0.966797 0.5
vt 0.994141 0.5

# verts
v -0.1 0 0.1
v -0.1 0 0
v -0.1 0 -0.1
v -0.1 0.2 0.1
v -0.1 0.2 0
v -0.1 0.2 -0.1
v -0.1 1.3 0.1
v -0.1 1.3 -0.1
v -0.1 1.5 0.1
v -0.1 1.5 -0.1
v 0.1 0 0.1
v 0.1 0 0
v 0.1 0 -0.1
v 0.1 0.2 0.1
v 0.1 0.2 0
v 0.1 0.2 -0.1
v 0.1 1.3 0.1
v 0.1 1.3 -0.1
v 0.1 1.5 0.1
v 0.1 1.5 -0.1
v -0.1 0 0.1
v -0.1 0.2 0.1
v -0.1 1.3 0.1
v -0.1 1.5 0.1
v 0.1 0 0.1
v 0.1 0.2 0.1
v 0.1 1.3 0.1
v 0.1 1.5 0.1
v -0.1 0 -0.1
v -0.1 0.2 -0.1
v -0.1 1.3 -0.1
v -0.1 1.5 -0.1
v 0.1 0 -0.1
v 0.1 0.2 -0.1
v 0.1 1.3 -0.1
v 0.1 1.5 -0.1
v -0.1 0 0.1
v 0.1 0 0.1
v -0.1 0 0
v 0.1 0 0
v -0.1 0 -0.1
v 0.1 0 -0.1
v -0.1 1.5 0.1
v 0.1 1.5 0.1
v -0.1 1.5 -0.1
v 0.1 1.5 -0.1

# faces
f 4/2/1 2/2/1 1/2/1
f 5/1/1 3/1/1 2/1/1
f 5/2/1 2/2/1 4/2/1
f 6/1/1 3/1/1 5/1/1
f 7/3/1 5/3/1 4/3/1
f 7/3/1 6/3/1 5/3/1
f 8/3/1 6/3/1 7/3/1
f 9/2/1 8/2/1 7/2/1
f 10/2/1 8/2/1 9/2/1
f 11/2/2 12/2/2 14/2/2
f 12/1/2 13/1/2 15/1/2
f 14/2/2 12/2/2 15/2/2
f 15/1/2 13/1/2 16/1/2
f 14/3/2 15/3/2 17/3/2
f 15/3/2 16/3/2 17/3/2
f 17/3/2 16/3/2 18/3/2
f 17/2/2 18/2/2 19/2/2
f 19/2/2 18/2/2 20/2/2
f 25/2/3 22/2/3 21/2/3
f 26/3/3 23/3/3 22/3/3
f 26/2/3 22/2/3 25/2/3
f 27/2/3 24/2/3 23/2/3
f 27/3/3 23/3/3 26/3/3
f 28/2/3 24/2/3 27/2/3
f 29/1/4 30/1/4 33/1/4
f 30/3/4 31/3/4 34/3/4
f 33/1/4 30/1/4 34/1/4
f 31/2/4 32/2/4 35/2/4
f 34/3/4 31/3/4 35/3/4
f 35/2/4 32/2/4 36/2/4
f 39/2/5 38/2/5 37/2/5
f 40/2/5 38/2/5 39/2/5
f 41/1/5 40/1/5 39/1/5
f 42/1/5 40/1/5 41/1/5
f 43/2/6 44/2/6 45/2/6
f 45/2/6 44/2/6 46/2/6
